<svg xmlns="http://www.w3.org/2000/svg" viewBox="0 0 1200 675" width="1200" height="675" role="img" aria-label="Silhouette of a suited man seated at a talk-show desk, one hand to his ear, with a wide Absolut bottle outline behind, titled Absolut Truth with Vir Das, in Absolut blue">
  <defs>
    <linearGradient id="bg" x1="0" y1="0" x2="0" y2="1">
      <stop offset="0" stop-color="#0F2138"></stop>
      <stop offset="1" stop-color="#1C3656"></stop>
    </linearGradient>
    <radialGradient id="glow" cx="0.5" cy="0.42" r="0.55">
      <stop offset="0" stop-color="#3A5E8E" stop-opacity="0.8"></stop>
      <stop offset="1" stop-color="#3A5E8E" stop-opacity="0"></stop>
    </radialGradient>
  </defs>

  <rect x="0" y="0" width="1200" height="675" fill="url(#bg)"></rect>
  <ellipse cx="600" cy="310" rx="360" ry="280" fill="url(#glow)"></ellipse>

  <g fill="#FFFFFF" fill-opacity="0.02" stroke="#5E8AC0" stroke-opacity="0.5" stroke-width="4.5" stroke-linejoin="round">
    <rect x="574" y="34" width="52" height="30" rx="6"></rect>
    <path d="M580,64 L580,150 C580,215 335,220 335,305 L335,600 Q335,642 380,642 L820,642 Q865,642 865,600 L865,305 C865,220 620,215 620,150 L620,64 Z"></path>
  </g>

  <g fill="#081320">
    <path d="M498,612 L498,476 C498,455 516,442 546,435 C562,431 576,425 586,408 L614,408 C624,425 638,431 654,435 C684,442 702,455 702,476 L702,612 Z"></path>
    <rect x="583" y="378" width="34" height="40"></rect>
    <ellipse cx="600" cy="338" rx="46" ry="54"></ellipse>
    <path d="M690,462 L742,548 L650,374" fill="none" stroke="#081320" stroke-width="42" stroke-linecap="round" stroke-linejoin="round"></path>
  </g>

  <path d="M573,410 L627,410 L600,478 Z" fill="#F0EAD6"></path>
  <path d="M594,410 L600,424 L606,410 Z" fill="#081320"></path>
  <path d="M595,420 L605,420 L603,434 L597,434 Z" fill="#2E6FB0"></path>
  <path d="M597,434 L603,434 L601,478 L599,478 Z" fill="#2E6FB0"></path>

  <g fill="#081320">
    <rect x="250" y="470" width="700" height="24" rx="5"></rect>
    <rect x="285" y="494" width="630" height="181"></rect>
  </g>

  <text x="600" y="560" text-anchor="middle" font-family="Arial Narrow, Arial, sans-serif" font-weight="800" font-size="50" letter-spacing="3" fill="#F0EAD6">ABSOLUT TRUTH</text>
  <text x="588" y="602" text-anchor="end" font-family="Arial, sans-serif" font-weight="700" font-size="25" letter-spacing="4" fill="#F0EAD6">WITH</text>
  <text x="612" y="602" text-anchor="start" font-family="Arial, sans-serif" font-weight="700" font-size="25" letter-spacing="4" fill="#3E86C9">VIR DAS</text>
</svg>